<svg xmlns="http://www.w3.org/2000/svg" width="54.552" height="40.71" viewBox="0 0 54.552 40.71">
  <g id="cresta" transform="translate(-21.051 -8.551)">
    <g id="color" transform="translate(22.298 9.598)">
      <path id="Trazado_6" data-name="Trazado 6" d="M70.663,47.888s10.122-16.671,5.495-18.97-11.568,2.3-11.568,2.3,4.627-16.1-4.627-16.1-11.568,9.2-11.568,9.2-3.371-19.076-16.2-13.8c-8.015,3.3-11.568,11.5,0,34.491" transform="translate(-24.795 -9.598)" fill="#ea5a47"/>
    </g>
    <g id="line" transform="translate(22.049 9.598)">
      <path id="Trazado_9" data-name="Trazado 9" d="M70.5,47.888S80.625,31.217,76,28.917s-11.568,2.3-11.568,2.3,4.627-16.1-4.627-16.1-11.568,9.2-11.568,9.2-3.371-19.076-16.2-13.8c-8.015,3.3-11.568,11.5,0,34.491" transform="translate(-24.635 -9.598)" fill="none" stroke="#000" stroke-linecap="round" stroke-linejoin="round" stroke-width="2"/>
      <line id="Línea_3" data-name="Línea 3" x2="38" y2="3" transform="translate(7.5 35.5)" fill="none" stroke="#000" stroke-width="2"/>
    </g>
  </g>
</svg>
