<svg xmlns="http://www.w3.org/2000/svg" width="200" height="200" viewBox="0 0 200 200">
  <g id="Scan" transform="translate(-88 -282)">
    <g id="System_Qr_Code" data-name="System / Qr_Code" transform="translate(142.261 337)">
      <path id="Vector" d="M116.5,124H124m-30,0H79V101.5m22.5,0H124V79h-7.5M79,79H94M4,101.5c0-6.989,0-10.484,1.142-13.24a14.993,14.993,0,0,1,8.116-8.117C16.014,79,19.509,79,26.5,79s10.488,0,13.244,1.141a14.992,14.992,0,0,1,8.115,8.117C49,91.014,49,94.511,49,101.5s0,10.484-1.142,13.241a15,15,0,0,1-8.115,8.117C36.986,124,33.487,124,26.5,124s-10.484,0-13.24-1.142a14.992,14.992,0,0,1-8.116-8.116C4,111.986,4,108.487,4,101.5Zm75-75c0-6.989,0-10.484,1.141-13.24a14.993,14.993,0,0,1,8.117-8.116C91.014,4,94.509,4,101.5,4s10.488,0,13.244,1.142a14.992,14.992,0,0,1,8.116,8.116C124,16.014,124,19.511,124,26.5s0,10.484-1.142,13.24a14.994,14.994,0,0,1-8.116,8.117C111.986,49,108.487,49,101.5,49s-10.484,0-13.24-1.142a14.992,14.992,0,0,1-8.117-8.115C79,36.986,79,33.487,79,26.5Zm-75,0c0-6.989,0-10.484,1.142-13.24a14.993,14.993,0,0,1,8.116-8.116C16.014,4,19.509,4,26.5,4S36.986,4,39.742,5.142a14.992,14.992,0,0,1,8.115,8.116C49,16.014,49,19.511,49,26.5s0,10.484-1.142,13.24a14.994,14.994,0,0,1-8.115,8.117C36.986,49,33.487,49,26.5,49s-10.484,0-13.24-1.142a14.992,14.992,0,0,1-8.116-8.115C4,36.986,4,33.487,4,26.5Z" transform="translate(-18.761 -19)" fill="none" stroke="#000" stroke-linecap="round" stroke-linejoin="round" stroke-width="15"/>
    </g>
    <path id="scan-2" data-name="scan" d="M130,180h30a20,20,0,0,0,20-20V130a10,10,0,0,1,20,0v30a40,40,0,0,1-40,40H40A40,40,0,0,1,0,160V130a10,10,0,0,1,20,0v30a20,20,0,0,0,20,20H70a10,10,0,0,1,0,20h60a10,10,0,0,1,0-20ZM20,70A10,10,0,1,1,0,70V40A40,40,0,0,1,40,0H70a10,10,0,0,1,0,20H40A20,20,0,0,0,20,40Zm160,0V40a20,20,0,0,0-20-20H130a10,10,0,0,1,0-20h30a40,40,0,0,1,40,40V70a10,10,0,0,1-20,0Z" transform="translate(88 282)"/>
  </g>
</svg>
